<svg style="height:42px;width:auto;display:block" viewBox="0 0 289 53"  xmlns="http://www.w3.org/2000/svg" xmlns:xlink="http://www.w3.org/1999/xlink"><path class="main-path" d="M49.8995 22.3444C46.8647 22.3444 44.5612 24.1791 43.6618 26.982L43.5624 22.8795H39.6918V45.7309H43.8962V39.5263L43.7306 35.9564C44.5969 38.6574 46.9667 40.4258 49.8027 40.4258C54.3052 40.4258 57.7426 36.4227 57.7426 31.4514C57.7426 26.48 54.3409 22.3444 49.9046 22.3444H49.8995ZM48.6 36.5221C45.6315 36.5221 43.6286 34.3537 43.6286 31.4514C43.6286 28.5491 45.6646 26.2481 48.6 26.2481C51.3341 26.2481 53.3369 28.3835 53.3369 31.4514C53.3369 34.5193 51.3341 36.5221 48.6 36.5221ZM11.2015 27.2954C13.4234 26.9463 16.2467 25.8685 16.2467 22.9789C16.2467 19.9008 13.7394 17.8394 8.97952 17.8394H0V39.9264H9.42544C14.1853 39.9264 17.3577 37.0394 17.3577 32.9777C17.3577 29.6448 14.7561 27.805 11.2015 27.298V27.2954ZM4.12538 21.5826H8.37817C10.6638 21.5826 11.8691 22.5024 11.8691 24.3116C11.8691 25.9933 10.6001 27.1349 8.34759 27.1349H4.12793V21.5826H4.12538ZM9.04322 36.1781H4.12538V29.5785H9.07635C11.8691 29.5785 13.2323 30.8806 13.2323 32.8146C13.2323 34.9728 11.6143 36.1781 9.04322 36.1781ZM32.9597 22.877L32.8604 27.0126C31.9583 24.1765 29.6243 22.3419 26.6226 22.3419C22.2526 22.3419 18.7821 26.345 18.7821 31.4488C18.7821 36.5527 22.2195 40.4232 26.6888 40.4232C29.558 40.4232 32.0271 38.5886 32.8935 35.7526L32.9597 39.9213H36.8303V22.8744H32.9597V22.877ZM27.9221 36.5221C25.1523 36.5221 23.1852 34.4199 23.1852 31.4514C23.1852 28.4828 25.1523 26.2481 27.889 26.2481C30.7913 26.2481 32.8272 28.4497 32.8272 31.4514C32.8272 34.453 30.827 36.5221 27.9247 36.5221H27.9221ZM59.4218 31.352C59.4218 25.9475 63.593 22.2451 68.4625 22.2451C70.9316 22.2451 73.3319 23.2465 75.1665 25.1474L72.6974 28.0497C71.5635 26.7832 69.9964 26.1819 68.5287 26.1819C65.9271 26.1819 63.6924 28.0497 63.6924 31.352C63.6924 34.6543 65.8608 36.4558 68.4956 36.4558C69.9302 36.4558 71.4973 35.8545 72.6312 34.5218L75.0672 37.5235C73.2656 39.4244 70.8628 40.3595 68.4293 40.3595C63.593 40.3595 59.4218 36.7565 59.4218 31.352ZM84.4722 22.3444C79.2027 22.3444 75.4647 26.4138 75.4647 31.4182C75.4647 36.4227 79.2333 40.4258 84.4722 40.4258C89.7111 40.4258 93.546 36.4227 93.546 31.4182C93.546 26.4138 89.7774 22.3444 84.4722 22.3444ZM84.4722 36.5221C81.7024 36.5221 79.7022 34.3537 79.7022 31.4182C79.7022 28.4828 81.7024 26.2481 84.4722 26.2481C87.242 26.2481 89.3416 28.4166 89.3416 31.4182C89.3416 34.4199 87.3057 36.5221 84.4722 36.5221ZM116.889 31.1252C116.889 26.0545 113.386 22.319 108.182 22.319C102.979 22.319 99.3098 26.3883 99.3098 31.3928C99.3098 36.7642 103.445 40.4003 108.45 40.3672C111.653 40.3672 114.221 38.6651 115.59 36.5297L112.687 34.2951C111.553 35.9309 110.053 36.5629 108.317 36.5629C106.05 36.596 104.014 35.1283 103.58 32.3942H116.79C116.856 31.961 116.889 31.6272 116.889 31.1252ZM103.647 29.8588C104.179 27.4916 105.948 26.0902 108.317 26.0902C110.519 26.0902 112.287 27.4916 112.489 29.5938L103.649 29.8614H103.647V29.8588ZM118.872 22.8541H122.775L122.808 27.1247C123.708 24.4568 126.011 22.3215 128.914 22.3215C132.616 22.3215 134.818 24.9894 134.818 29.26V39.9009H130.613V29.7594C130.613 27.6241 129.38 26.2558 127.377 26.2558C124.607 26.2558 123.073 28.358 123.073 31.4259V39.8983H118.869V22.8515H118.872V22.8541ZM154.423 31.1278C154.423 26.057 150.919 22.3215 145.716 22.3215C140.513 22.3215 136.843 26.3908 136.843 31.3953C136.843 36.7667 140.979 40.4029 145.983 40.3697C149.186 40.3697 151.755 38.6676 153.123 36.5323L150.221 34.2976C149.087 35.9335 147.586 36.5654 145.851 36.5654C143.583 36.5985 141.547 35.1308 141.114 32.3967H154.323C154.39 31.9635 154.423 31.6297 154.423 31.1278ZM141.18 29.8614C141.713 27.4942 143.481 26.0927 145.851 26.0927C148.053 26.0927 149.821 27.4942 150.022 29.5963L141.183 29.8639H141.18V29.8614ZM182.658 22.8566L182.592 26.8597C181.759 23.9574 179.422 22.3241 176.754 22.3241C172.851 22.3241 168.781 25.2926 168.781 31.0309C168.781 36.3004 172.851 39.6053 176.821 39.6053C179.422 39.6053 181.524 38.1707 182.526 35.3016V37.4369C182.526 41.1061 180.424 42.5407 177.389 42.5407C175.62 42.5407 173.852 41.9394 172.519 41.1724L170.685 44.5079C172.285 45.8099 174.887 46.5438 177.458 46.5438C183.094 46.5438 186.498 43.2414 186.498 37.3706V22.8592H182.658V22.8566ZM177.621 35.8341C174.92 35.8341 173.184 33.765 173.184 31.0309C173.184 27.9961 174.92 26.2278 177.621 26.2278C180.523 26.2278 182.559 28.3299 182.559 31.0641C182.559 34.0326 180.523 35.8341 177.621 35.8341ZM188.764 18.4535C188.764 17.0189 189.864 15.9844 191.299 15.9844C192.734 15.9844 193.801 17.0189 193.801 18.4535C193.801 19.8881 192.7 20.9226 191.299 20.9226C189.897 20.9226 188.764 19.8881 188.764 18.4535ZM193.383 22.8566V39.9034H189.179V22.8566H193.383ZM213.233 31.1303C213.233 26.0596 209.729 22.3241 204.526 22.3241C199.323 22.3241 195.654 26.3934 195.654 31.3979C195.654 36.7693 199.789 40.4054 204.794 40.3723C207.997 40.3723 210.565 38.6701 211.933 36.5348L209.031 34.3001C207.897 35.936 206.396 36.568 204.661 36.568C202.393 36.6011 200.357 35.1334 199.924 32.3993H213.134C213.2 31.9661 213.233 31.6323 213.233 31.1303ZM199.991 29.8639C200.523 27.4967 202.291 26.0953 204.661 26.0953C206.863 26.0953 208.631 27.4967 208.832 29.5989L199.993 29.8664H199.991V29.8639ZM214.288 37.0037L217.025 34.3689C218.125 35.9692 219.626 36.7361 221.662 36.7361C223.364 36.7361 224.697 36.2036 224.697 35.0671C224.697 31.6985 215.022 34.2008 215.022 27.3285C215.022 24.0262 218.258 22.3241 221.66 22.3241C224.361 22.3241 226.998 23.1573 228.733 25.5602L226.032 27.963C224.832 26.294 223.13 25.8277 221.728 25.8277C220.059 25.8277 219.16 26.4622 219.16 27.3285C219.16 30.3965 229.001 28.228 229.001 35.0009C229.001 38.5045 225.9 40.3723 221.795 40.3723C218.525 40.3723 215.924 39.2384 214.288 37.0037ZM156.405 22.8923H160.342L160.375 27.8305C161.175 24.5282 163.211 22.7267 165.846 22.6935C166.847 22.6604 167.813 22.8592 168.781 23.3943L167.347 26.8979C166.914 26.5972 166.312 26.3985 165.479 26.3985C163.277 26.4979 160.61 27.9987 160.61 32.7713V39.9111H156.405V22.8923Z" fill="#07114c"/><mask id="mask0_6025_49543" style="mask-type:luminance" maskUnits="userSpaceOnUse" x="236" y="10" width="53" height="43"><path d="M286.283 11.7183C282.973 8.62744 275.306 10.4239 265.516 17.8006C262.619 19.9843 258.794 22.9656 255.089 25.845C254.162 26.5661 253.239 27.2821 252.343 27.9777C248.311 31.0992 244.767 33.8027 243.21 34.8016C241.116 36.1419 239.551 35.7571 241.205 32.9567C242.68 30.4621 246.296 26.9432 250.202 22.9987C249.662 21.9668 249.129 21.0928 248.627 20.3793C248.615 20.3615 248.602 20.3436 248.589 20.3258C245.975 23.2026 243.47 25.8271 242.148 27.3687C240.168 29.6773 237.332 33.0663 236.526 36.4808C235.859 40.4023 238.733 41.3961 242.466 39.5996C244.798 38.4785 248.989 35.5507 253.642 32.205C254.712 31.4355 255.808 30.6431 256.911 29.8455C262.26 25.9775 267.779 21.9897 271.514 19.8136C278.394 15.8105 280.769 16.789 279.082 23.5389C278.168 27.1904 274.437 36.0501 268.821 42.1274C262.545 48.9206 261.434 46.4515 260.879 43.669L255.535 42.6395C256.05 47.3892 256.501 57.286 266.808 49.8073C275.451 43.539 283.687 32.4293 286.696 24.8538C288.696 19.8162 289.203 14.4499 286.283 11.7208V11.7183Z" fill="#07114c"/></mask><g mask="url(#mask0_6025_49543)"></g><mask id="mask1_6025_49543" style="mask-type:luminance" maskUnits="userSpaceOnUse" x="241" y="13" width="28" height="40"><path d="M260.882 43.659C259.97 39.1004 258.711 34.287 256.914 29.8355C256.359 28.4621 255.752 27.1243 255.09 25.8375C254.208 24.1277 253.222 22.5097 252.124 21.0318C251.507 20.2037 250.855 19.4163 250.164 18.6824C250.147 18.6621 250.129 18.6442 250.111 18.6264C247.899 16.2821 246.047 14.7864 244.969 14.1494C243.353 13.1938 242.056 12.7505 241.735 13.3289C241.572 13.6245 241.819 13.943 242.589 14.366C244.933 15.6553 247.068 18.1728 248.587 20.3209C248.6 20.3387 248.613 20.3565 248.625 20.3744C249.127 21.0879 249.66 21.9593 250.2 22.9938C250.919 24.3698 251.65 26.0286 252.34 27.9728C252.797 29.2571 253.235 30.6662 253.643 32.1976C254.438 35.1967 255.105 38.6723 255.536 42.6295C256.051 47.3792 256.502 57.276 266.809 49.7973L268.824 42.1174C262.548 48.9106 261.437 46.4415 260.882 43.659Z" fill="#07114c"/></mask><g mask="url(#mask1_6025_49543)"></g><mask id="mask2_6025_49543" style="mask-type:luminance" maskUnits="userSpaceOnUse" x="234" y="0" width="30" height="41"><path d="M250.191 22.9981C250.825 22.356 251.47 21.7011 252.112 21.0412C256.393 16.6329 260.661 11.8323 262.564 7.39862C264.152 3.69622 262.493 0.625757 259.438 0.121232C254.803 -0.645747 247.08 2.41198 243.507 4.08353C239.048 6.17043 235.809 8.1656 234.9 9.21287C234.719 9.42181 234.642 9.75307 234.856 9.95437C235.241 10.3162 236.097 9.70975 237.631 8.91219C241.79 6.7514 247.943 4.28993 253.035 3.47454C258.301 2.63111 259.265 4.83523 257.096 9.39124C255.967 11.761 253.098 15.257 250.099 18.6332C249.592 19.204 249.082 19.7697 248.578 20.3251C245.964 23.202 243.459 25.8265 242.136 27.3681C240.156 29.6767 237.32 33.0657 236.515 36.4801C235.848 40.4017 238.722 41.3954 242.455 39.599C244.786 38.4778 248.978 35.5501 253.631 32.2044C253.226 30.6705 252.785 29.2614 252.329 27.9797C248.298 31.1011 244.753 33.8046 243.196 34.8035C241.102 36.1438 239.537 35.759 241.191 32.9587C242.666 30.4641 246.282 26.9451 250.188 23.0007H250.191V22.9981Z" fill="#07114c"/></mask><g mask="url(#mask2_6025_49543)"></g><defs>
  <linearGradient id="be-grad" x1="0%" y1="0%" x2="100%" y2="100%">
    <stop offset="0%" stop-color="#4544e6"/>
    <stop offset="45%" stop-color="#2783d5"/>
    <stop offset="95%" stop-color="#31e7df"/>
  </linearGradient>
</defs>
<polygon points="261.5,1 289,27 261.5,53 234,27" fill="url(#be-grad)"/>
<polygon points="261.5,9 281,27 261.5,45 242,27" fill="none" stroke="white" stroke-width="1" opacity="0.4"/>
<circle cx="261.5" cy="27" r="5" fill="white" opacity="0.9"/></svg>